<svg width="24" height="25" viewBox="0 0 24 25" fill="none" xmlns="http://www.w3.org/2000/svg">
<g id="mingcute:strikethrough-line" clip-path="url(#clip0_132_908)">
<g id="Group">
<path id="Vector" d="M19.9396 13.0638C20.2105 13.0641 20.471 13.1678 20.6679 13.3538C20.8649 13.5397 20.9834 13.7938 20.9993 14.0642C21.0151 14.3346 20.9272 14.6008 20.7533 14.8085C20.5795 15.0162 20.3329 15.1497 20.064 15.1817L19.9396 15.1891H17.6974C17.928 15.5366 18.114 15.916 18.2479 16.3187C19.2606 19.3568 17.0694 22.4916 13.9091 22.6234L13.7019 22.6276H11.8933C10.8044 22.6278 9.73537 22.3364 8.79727 21.7836C7.85916 21.2309 7.08622 20.4369 6.55878 19.4843L6.43976 19.258L6.24636 18.8701C6.14322 18.6746 6.10419 18.4515 6.13478 18.2325C6.16403 18.0198 6.25705 17.8209 6.40158 17.6621C6.54611 17.5032 6.73537 17.3919 6.94442 17.3428C7.15347 17.2937 7.3725 17.309 7.57265 17.3869C7.77279 17.4647 7.94466 17.6013 8.06561 17.7788L8.11024 17.8489L8.34084 18.3069C8.65355 18.9325 9.12591 19.4643 9.71014 19.8487C10.2944 20.2331 10.9698 20.4564 11.668 20.496L11.8933 20.5024H13.7008C14.2839 20.5028 14.851 20.3121 15.3154 19.9596C15.7799 19.607 16.116 19.112 16.2723 18.5503C16.4286 17.9886 16.3966 17.3911 16.1811 16.8493C15.9656 16.3075 15.5785 15.8513 15.0791 15.5504L14.8942 15.4484L14.3756 15.1891H5.06257C4.79172 15.1888 4.53121 15.0851 4.33426 14.8992C4.13732 14.7132 4.0188 14.4591 4.00293 14.1887C3.98705 13.9184 4.07502 13.6521 4.24886 13.4444C4.4227 13.2367 4.66929 13.1033 4.93824 13.0713L5.06257 13.0638H19.9396ZM13.1089 3.5C14.2412 3.49983 15.3511 3.81499 16.3143 4.41015C17.2776 5.00532 18.056 5.85696 18.5624 6.86965L18.7537 7.2554C18.8602 7.46116 18.8967 7.69604 18.8576 7.92441C18.8185 8.15278 18.706 8.36217 18.5371 8.52081C18.3683 8.67945 18.1523 8.77868 17.9219 8.80346C17.6916 8.82823 17.4594 8.7772 17.2607 8.65809C17.1259 8.57611 17.0112 8.465 16.9249 8.33292L16.8877 8.27129L16.6614 7.82072C16.3315 7.16097 15.8245 6.60611 15.197 6.21834C14.5696 5.83057 13.8465 5.62521 13.1089 5.62529H11.3014C10.7001 5.6247 10.1163 5.82729 9.64458 6.20018C9.1729 6.57308 8.84106 7.09441 8.70288 7.6796C8.5647 8.26478 8.62831 8.87948 8.88337 9.42398C9.13843 9.96848 9.56998 10.4108 10.108 10.6792L12.7519 12.0012H8.26432C7.56328 11.428 7.03899 10.6679 6.75218 9.80894C5.71928 6.70601 8.02842 3.5 11.3014 3.5H13.1089Z" fill="black"/>
</g>
</g>
<defs>
<clipPath id="clip0_132_908">
<rect width="24" height="24" fill="white" transform="translate(0 0.5)"/>
</clipPath>
</defs>
</svg>
