<svg width="24" height="25" viewBox="0 0 24 25" fill="none" xmlns="http://www.w3.org/2000/svg">
<g id="ooui:bold-b">
<path id="Vector" d="M10.8903 3.5C13.4147 3.5 15.3081 3.81555 16.5703 4.55184C17.9376 5.28812 18.5687 6.55032 18.5687 8.33845C18.5687 9.39028 18.2532 10.3369 17.8325 11.0732C17.594 11.4329 17.2842 11.7398 16.9224 11.975C16.5605 12.2102 16.1543 12.3687 15.7288 12.4406C16.3301 12.5811 16.9005 12.8306 17.4117 13.1769C17.8325 13.4924 18.2532 14.0184 18.5687 14.5443C18.8979 15.3062 19.0421 16.1352 18.9895 16.9635C19.0267 17.7234 18.8841 18.4814 18.5734 19.1758C18.2628 19.8703 17.7927 20.4817 17.2014 20.9605C15.704 22.0299 13.8836 22.55 12.0474 22.4331H5.00006V3.5H10.8903ZM11.3111 10.968C12.4681 10.968 13.3096 10.8629 13.7303 10.4421C14.2562 10.1266 14.4666 9.49547 14.4666 8.86436C14.4666 8.12808 14.151 7.60216 13.6251 7.28661C13.0992 6.97106 12.2577 6.76069 11.1007 6.76069H8.99704V10.968H11.3111ZM8.99704 14.1235V19.2775H11.6266C12.7836 19.2775 13.7303 18.962 14.151 18.5413C14.677 18.0153 14.8873 17.4894 14.8873 16.648C14.8999 16.33 14.8401 16.0134 14.7126 15.7219C14.585 15.4304 14.393 15.1716 14.151 14.965C13.6251 14.5443 12.7836 14.3339 11.5214 14.3339H8.89185L8.99704 14.1235Z" fill="black"/>
</g>
</svg>
