<svg width="24" height="25" viewBox="0 0 24 25" fill="none" xmlns="http://www.w3.org/2000/svg">
<g id="ri:double-quotes-r">
<path id="Vector" d="M19.417 7.179C20.447 8.273 21 9.5 21 11.489C21 14.989 18.544 18.126 14.97 19.677L14.077 18.299C17.412 16.495 18.064 14.154 18.325 12.678C17.788 12.956 17.085 13.053 16.395 12.989C14.591 12.822 13.169 11.341 13.169 9.5C13.169 8.57174 13.5377 7.6815 14.1941 7.02513C14.8505 6.36875 15.7407 6 16.669 6C17.742 6 18.769 6.49 19.417 7.179ZM9.41698 7.179C10.447 8.273 11 9.5 11 11.489C11 14.989 8.54398 18.126 4.96998 19.677L4.07698 18.299C7.41198 16.495 8.06398 14.154 8.32398 12.678C7.78698 12.956 7.08398 13.053 6.39498 12.989C4.59098 12.823 3.16998 11.342 3.16998 9.5C3.16998 8.57174 3.53873 7.6815 4.19511 7.02513C4.85149 6.36875 5.74173 6 6.66998 6C7.74298 6 8.76998 6.49 9.41798 7.179" fill="black"/>
</g>
</svg>
