<svg width="27" height="27" viewBox="0 0 27 27" fill="none" xmlns="http://www.w3.org/2000/svg">
<g id="ph:copy-bold">
<path id="Vector" d="M22.7812 2.95312H9.28125C8.94559 2.95312 8.62367 3.08647 8.38632 3.32382C8.14897 3.56117 8.01562 3.88309 8.01562 4.21875V8.01562H4.21875C3.88309 8.01562 3.56117 8.14897 3.32382 8.38632C3.08647 8.62367 2.95312 8.94559 2.95312 9.28125V22.7812C2.95312 23.1169 3.08647 23.4388 3.32382 23.6762C3.56117 23.9135 3.88309 24.0469 4.21875 24.0469H17.7188C18.0544 24.0469 18.3763 23.9135 18.6137 23.6762C18.851 23.4388 18.9844 23.1169 18.9844 22.7812V18.9844H22.7812C23.1169 18.9844 23.4388 18.851 23.6762 18.6137C23.9135 18.3763 24.0469 18.0544 24.0469 17.7188V4.21875C24.0469 3.88309 23.9135 3.56117 23.6762 3.32382C23.4388 3.08647 23.1169 2.95312 22.7812 2.95312ZM16.4531 21.5156H5.48438V10.5469H16.4531V21.5156ZM21.5156 16.4531H18.9844V9.28125C18.9844 8.94559 18.851 8.62367 18.6137 8.38632C18.3763 8.14897 18.0544 8.01562 17.7188 8.01562H10.5469V5.48438H21.5156V16.4531Z" fill="black"/>
</g>
</svg>
