<svg width="16" height="16" viewBox="0 0 16 16" fill="none" xmlns="http://www.w3.org/2000/svg">
<g id="photo Fill">
<g id="Icon">
<path d="M7.99996 4.99996C7.99996 4.07948 8.74615 3.33329 9.66663 3.33329C10.5871 3.33329 11.3333 4.07949 11.3333 4.99996C11.3333 5.92043 10.5871 6.66663 9.66663 6.66663C8.74615 6.66663 7.99996 5.92043 7.99996 4.99996Z" fill="white"/>
<path fill-rule="evenodd" clip-rule="evenodd" d="M6.63745 0.666626C5.72876 0.666621 5.00607 0.666616 4.42301 0.714254C3.82594 0.763037 3.31683 0.865077 2.85066 1.1026C2.09802 1.48609 1.48609 2.09802 1.1026 2.85066C0.865077 3.31683 0.763037 3.82594 0.714254 4.42301C0.666616 5.00607 0.666621 5.72876 0.666626 6.63745V9.36246C0.666621 10.2712 0.666616 10.9938 0.714254 11.5769C0.763037 12.174 0.865077 12.6831 1.1026 13.1493C1.48609 13.9019 2.09802 14.5138 2.85066 14.8973C3.31683 15.1348 3.82594 15.2369 4.42301 15.2857C5.00605 15.3333 5.72872 15.3333 6.63738 15.3333H9.36248C10.2711 15.3333 10.9939 15.3333 11.5769 15.2857C12.174 15.2369 12.6831 15.1348 13.1493 14.8973C13.9019 14.5138 14.5138 13.9019 14.8973 13.1493C15.1348 12.6831 15.2369 12.174 15.2857 11.5769C15.3333 10.9939 15.3333 10.2712 15.3333 9.36254V6.63744C15.3333 5.72878 15.3333 5.00605 15.2857 4.42301C15.2369 3.82594 15.1348 3.31683 14.8973 2.85066C14.5138 2.09802 13.9019 1.48609 13.1493 1.1026C12.6831 0.865077 12.174 0.763037 11.5769 0.714254C10.9938 0.666616 10.2712 0.666621 9.36246 0.666626H6.63745ZM3.45598 2.29061C3.70286 2.16482 4.01697 2.08521 4.53159 2.04316C5.05398 2.00048 5.72221 1.99996 6.66663 1.99996H9.33329C10.2777 1.99996 10.9459 2.00048 11.4683 2.04316C11.9829 2.08521 12.2971 2.16482 12.5439 2.29061C13.0457 2.54627 13.4536 2.95422 13.7093 3.45598C13.8351 3.70286 13.9147 4.01697 13.9568 4.53159C13.9994 5.05398 14 5.72221 14 6.66663V9.33329C14 9.57223 13.9999 9.79349 13.9992 9.99919L12.9428 8.94277C12.4221 8.42207 11.5778 8.42207 11.0571 8.94277L9.56899 10.4309C9.43882 10.5611 9.22777 10.5611 9.09759 10.4309L4.94277 6.2761C4.42207 5.7554 3.57785 5.7554 3.05715 6.2761L1.99996 7.33329V6.66663C1.99996 5.7222 2.00048 5.05398 2.04316 4.53159C2.08521 4.01697 2.16482 3.70286 2.29061 3.45598C2.54627 2.95422 2.95422 2.54627 3.45598 2.29061Z" fill="white"/>
</g>
</g>
</svg>
