<svg width="21" height="22" viewBox="0 0 21 22" fill="none" xmlns="http://www.w3.org/2000/svg">
<g id="Group 2">
<path id="Vector" d="M16.5 7.00183C16.5 5.41053 15.8679 3.88441 14.7426 2.75919C13.6174 1.63397 12.0913 1.00183 10.5 1.00183C8.9087 1.00183 7.38258 1.63397 6.25736 2.75919C5.13214 3.88441 4.5 5.41053 4.5 7.00183C4.5 14.0018 1.5 16.0018 1.5 16.0018H19.5C19.5 16.0018 16.5 14.0018 16.5 7.00183Z" stroke="black" stroke-width="2" stroke-linecap="round" stroke-linejoin="round"/>
<path id="Vector_2" d="M12.23 20.0018C12.0542 20.3049 11.8019 20.5565 11.4982 20.7314C11.1946 20.9062 10.8504 20.9983 10.5 20.9983C10.1496 20.9983 9.80541 20.9062 9.50179 20.7314C9.19818 20.5565 8.94583 20.3049 8.77002 20.0018" stroke="black" stroke-width="2" stroke-linecap="round" stroke-linejoin="round"/>
</g>
</svg>
